<?xml version="1.0" encoding="UTF-8" standalone="no"?>
<svg
   xmlns:dc="http://purl.org/dc/elements/1.1/"
   xmlns:cc="http://creativecommons.org/ns#"
   xmlns:rdf="http://www.w3.org/1999/02/22-rdf-syntax-ns#"
   xmlns:svg="http://www.w3.org/2000/svg"
   xmlns="http://www.w3.org/2000/svg"
   xmlns:xlink="http://www.w3.org/1999/xlink"
   xmlns:sodipodi="http://sodipodi.sourceforge.net/DTD/sodipodi-0.dtd"
   xmlns:inkscape="http://www.inkscape.org/namespaces/inkscape"
   version="1.1"
   x="0px"
   y="0px"
   viewBox="0 0 100 100"
   xml:space="preserve"
   id="svg4667"
   sodipodi:docname="fallback_reactive.svg"
   width="100"
   height="100"
   inkscape:version="0.92.3 (2405546, 2018-03-11)"><metadata
   id="metadata4673"><rdf:RDF><cc:Work
       rdf:about=""><dc:format>image/svg+xml</dc:format><dc:type
         rdf:resource="http://purl.org/dc/dcmitype/StillImage" /><dc:title /></cc:Work></rdf:RDF></metadata><defs
   id="defs4671"><linearGradient
     inkscape:collect="always"
     id="linearGradient968"><stop
       style="stop-color:#000000;stop-opacity:1;"
       offset="0"
       id="stop964" /><stop
       style="stop-color:#000000;stop-opacity:0;"
       offset="1"
       id="stop966" /></linearGradient><linearGradient
     inkscape:collect="always"
     xlink:href="#linearGradient968"
     id="linearGradient1074"
     x1="9.3484735"
     y1="19.729256"
     x2="36.382774"
     y2="19.729256"
     gradientUnits="userSpaceOnUse"
     gradientTransform="translate(-4.4303693)" /><linearGradient
     inkscape:collect="always"
     xlink:href="#linearGradient968"
     id="linearGradient970"
     x1="9.3484735"
     y1="19.729256"
     x2="36.382774"
     y2="19.729256"
     gradientUnits="userSpaceOnUse"
     gradientTransform="matrix(1.2329226,0,0,1.2329226,-0.49881882,46.696096)" /><linearGradient
     inkscape:collect="always"
     xlink:href="#linearGradient968"
     id="linearGradient1117"
     x1="9.3484735"
     y1="19.729256"
     x2="36.382774"
     y2="19.729256"
     gradientUnits="userSpaceOnUse"
     gradientTransform="matrix(1.3823195,0,0,1.3823195,-6.368462,5.8843722)" /></defs><sodipodi:namedview
   pagecolor="#ffffff"
   bordercolor="#666666"
   borderopacity="1"
   objecttolerance="10"
   gridtolerance="10"
   guidetolerance="10"
   inkscape:pageopacity="0"
   inkscape:pageshadow="2"
   inkscape:window-width="1853"
   inkscape:window-height="1025"
   id="namedview4669"
   showgrid="false"
   inkscape:zoom="3.2577279"
   inkscape:cx="-22.032783"
   inkscape:cy="18.496216"
   inkscape:window-x="67"
   inkscape:window-y="27"
   inkscape:window-maximized="1"
   inkscape:current-layer="svg4667"
   inkscape:pagecheckerboard="true" /><path
   style="fill:#ffffff;fill-opacity:1;stroke:none;stroke-width:0.2;stroke-miterlimit:4;stroke-dasharray:none;stroke-opacity:1"
   d="M 63.447266 4.5429688 C 57.944054 4.8088751 52.611657 7.0530335 48.363281 10.521484 C 43.77964 14.332841 40.555903 19.853802 39.878293 25.810457 C 39.685377 27.315397 39.546724 28.92271 40.092095 30.366267 C 40.858444 31.854562 42.579659 32.718315 44.232623 32.517877 C 46.040193 32.495791 47.71775 31.029974 47.919922 29.220703 C 48.303342 26.725257 48.493986 24.117708 49.752453 21.867568 C 51.34792 18.842329 53.98041 16.464042 56.890625 14.730469 C 60.446411 12.825213 64.652143 12.307225 68.613281 12.904297 C 73.280478 13.659368 77.688495 16.269431 80.310398 20.245502 C 83.36848 24.696225 84.103754 30.723044 81.910156 35.697266 C 80.563178 38.839678 78.086036 41.40493 75.15875 43.128854 C 72.516603 44.835795 69.721849 46.43066 67.64999 48.851425 C 63.750182 53.108268 61.457537 58.878744 61.647018 64.669984 C 61.841773 66.235754 63.306435 67.375791 64.775699 67.705525 C 66.838082 68.20974 69.338326 66.899117 69.65625 64.699219 C 69.923084 61.854004 70.265814 58.915076 71.710918 56.389279 C 73.295853 53.437189 75.975085 51.220975 78.921975 49.707602 C 83.922879 46.865872 88.2409 42.507788 90.24793 37.04207 C 92.580777 30.981975 92.183965 23.923661 89.118854 18.189855 C 85.940671 12.0834 80.102177 7.5478543 73.54398 5.5812042 C 70.581424 4.6060914 67.434064 4.4554619 64.339112 4.5234375 C 64.041814 4.5279737 63.744547 4.536908 63.447266 4.5429688 z "
   id="path822"
   inkscape:connector-curvature="0" /><path
   style="fill:#ffffff;fill-opacity:1;stroke:none;stroke-width:0.2;stroke-miterlimit:4;stroke-dasharray:none;stroke-opacity:1"
   d="M 65.191406 78.919922 C 62.883723 79.161642 60.679522 80.554532 59.665422 82.672966 C 59.065191 83.717272 59.25918 84.975467 59.212891 86.126953 C 59.319816 87.444276 60.097202 88.624367 60.996759 89.552744 C 63.258191 91.833108 67.106065 92.190481 69.778689 90.432264 C 71.647137 89.279869 72.975885 87.126914 72.733226 84.885563 C 72.630223 82.448167 70.92045 80.261131 68.665798 79.399933 C 67.573244 78.947757 66.365577 78.783831 65.191406 78.919922 z "
   id="path824"
   inkscape:connector-curvature="0" /><text
   xml:space="preserve"
   style="font-style:normal;font-variant:normal;font-weight:bold;font-stretch:normal;font-size:59.04552841px;line-height:1.25;font-family:Waree;-inkscape-font-specification:'Waree Bold';letter-spacing:0px;word-spacing:0px;fill:#000000;fill-opacity:1;stroke:none;stroke-width:0.3;stroke-miterlimit:4;stroke-dasharray:none;"
   x="6.2739639"
   y="92.3657"
   id="text138"
   transform="scale(1.0738041,0.93126856)"><tspan
     sodipodi:role="line"
     id="tspan136"
     x="6.2739639"
     y="92.3657"
     style="font-style:normal;font-variant:normal;font-weight:bold;font-stretch:normal;font-family:Lato;-inkscape-font-specification:'Lato Bold';fill:#ffffff;fill-opacity:1;stroke:none;stroke-width:0.3;stroke-miterlimit:4;stroke-dasharray:none;stroke-opacity:1;">R</tspan></text>

</svg>