<?xml version="1.0" encoding="UTF-8" standalone="no"?>
<svg
   xmlns:dc="http://purl.org/dc/elements/1.1/"
   xmlns:cc="http://creativecommons.org/ns#"
   xmlns:rdf="http://www.w3.org/1999/02/22-rdf-syntax-ns#"
   xmlns:svg="http://www.w3.org/2000/svg"
   xmlns="http://www.w3.org/2000/svg"
   xmlns:sodipodi="http://sodipodi.sourceforge.net/DTD/sodipodi-0.dtd"
   xmlns:inkscape="http://www.inkscape.org/namespaces/inkscape"
   version="1.1"
   x="0px"
   y="0px"
   viewBox="0 0 100 100"
   xml:space="preserve"
   id="svg4667"
   sodipodi:docname="fallback_star.svg"
   width="100"
   height="100"
   inkscape:version="0.92.3 (2405546, 2018-03-11)"><metadata
     id="metadata4673"><rdf:RDF><cc:Work
         rdf:about=""><dc:format>image/svg+xml</dc:format><dc:type
           rdf:resource="http://purl.org/dc/dcmitype/StillImage" /><dc:title /></cc:Work></rdf:RDF></metadata><defs
     id="defs4671" /><sodipodi:namedview
     pagecolor="#ffffff"
     bordercolor="#666666"
     borderopacity="1"
     objecttolerance="10"
     gridtolerance="10"
     guidetolerance="10"
     inkscape:pageopacity="0"
     inkscape:pageshadow="2"
     inkscape:window-width="1853"
     inkscape:window-height="1025"
     id="namedview4669"
     showgrid="false"
     inkscape:zoom="2.3035615"
     inkscape:cx="-21.598673"
     inkscape:cy="12.41867"
     inkscape:window-x="67"
     inkscape:window-y="27"
     inkscape:window-maximized="1"
     inkscape:current-layer="svg4667"
     inkscape:pagecheckerboard="true" /><path
     style="fill:#ffffff;fill-opacity:1;stroke:none;stroke-width:0.11125064;stroke-miterlimit:4;stroke-dasharray:none;stroke-opacity:1"
     d="M 62.578125 7.0859375 C 55.312573 7.1799352 48.204082 10.617402 43.42758 16.058507 C 41.790346 17.921144 40.413276 20.131921 39.460938 22.300781 C 38.077292 25.563436 37.232156 29.172363 37.644531 32.724609 C 38.073357 34.906589 40.41781 36.36343 42.572266 36.087891 C 44.508467 36.073934 46.30665 34.617238 46.691713 32.710612 C 47.107337 30.847289 47.058914 28.885952 47.744536 27.075524 C 48.824371 23.607218 51.4855 20.879047 54.436113 18.887103 C 58.03676 16.504872 62.593697 15.877273 66.804688 16.53125 C 71.880572 17.335735 76.584233 20.504896 78.95411 25.104778 C 81.301564 29.474307 81.468541 34.985454 79.150052 39.403468 C 77.468152 42.777143 74.285879 45.030343 71.101562 46.859375 C 67.780128 48.875293 64.847851 51.580481 62.859644 54.940476 C 60.440081 58.872381 59.155732 63.559447 59.544922 68.181641 C 60.400176 70.727176 63.649267 71.948765 66.022536 70.762931 C 67.5785 70.080569 68.521649 68.421585 68.488168 66.747152 C 68.781688 62.923377 70.120263 59.015397 73.008748 56.372304 C 75.560315 53.878956 79.054706 52.714683 81.702319 50.341058 C 85.914831 46.910957 89.014292 42.08052 90.077606 36.728225 C 91.617499 29.546335 89.497312 21.736486 84.61339 16.263066 C 79.981457 10.938591 73.155313 7.5140228 66.096629 7.1289294 C 64.924703 7.070681 63.75111 7.0711983 62.578125 7.0859375 z "
     id="path822"
     inkscape:connector-curvature="0" /><path
     style="fill:#ffffff;fill-opacity:1;stroke:none;stroke-width:0.11125064;stroke-miterlimit:4;stroke-dasharray:none;stroke-opacity:1"
     d="M 64.748047 80.384766 C 61.832895 80.512395 58.906015 82.579231 58.330078 85.521484 C 58.274542 86.938933 58.140435 88.463388 58.963508 89.708642 C 60.501373 92.540593 64.108987 93.840592 67.145965 92.900115 C 70.028557 92.141722 72.38069 89.24124 71.9306 86.185855 C 71.635537 82.646629 68.171851 80.161326 64.748047 80.384766 z "
     id="path824"
     inkscape:connector-curvature="0" /><g
     transform="matrix(1.6765698,0,0,1.4893891,5.7568006,52.912816)"
     id="g897"
     style="fill:#ffffff;fill-opacity:1;stroke:none;stroke-width:0.1;stroke-miterlimit:4;stroke-dasharray:none;stroke-opacity:1"><path
       inkscape:connector-curvature="0"
       d="M 12.226562 0.54296875 C 11.381264 0.61181085 10.807198 1.4758054 10.928752 2.2873525 C 10.937528 4.4949538 10.946303 6.702555 10.955078 8.9101562 C 10.257929 9.6540311 9.5589492 9.1891634 8.8599534 8.7136275 C 7.1791149 7.77205 5.5318506 6.7625963 3.8300781 5.8632812 C 2.8360552 5.4848013 1.738155 6.5360121 2.0644531 7.5429688 C 2.3120594 8.4472228 3.3597367 8.6610008 4.0334859 9.1512768 C 5.5815687 10.051372 7.1296515 10.951467 8.6777344 11.851562 C 8.9479599 12.782297 8.3588662 13.220336 7.5726324 13.545344 C 5.8848495 14.555634 4.1544944 15.50251 2.4921875 16.550781 C 1.6908003 17.208899 2.0424856 18.650278 3.0546875 18.869141 C 3.9581886 19.094309 4.6625774 18.305254 5.425134 17.968106 C 6.976131 17.084857 8.527128 16.201608 10.078125 15.318359 C 11.02085 15.547084 11.090509 16.280139 10.978016 17.118413 C 11.001196 19.08865 10.940821 21.064367 11.015625 23.03125 C 11.176023 24.032145 12.517793 24.511132 13.275391 23.837891 C 14.049174 23.230801 13.733203 22.15354 13.798474 21.312129 C 13.800545 19.487383 13.802616 17.662637 13.804688 15.837891 C 14.497853 15.087844 15.187613 15.583329 15.877441 16.053874 C 17.519001 17.004816 19.142815 17.988352 20.794922 18.919922 C 21.757171 19.378816 22.968695 18.509298 22.851562 17.455078 C 22.83013 16.636747 22.059469 16.193093 21.412459 15.875609 C 19.641509 14.866942 17.870559 13.858276 16.099609 12.849609 C 15.78793 11.880731 16.600467 11.56704 17.325169 11.20216 C 19.000503 10.228435 20.722314 9.3263572 22.369141 8.3085938 C 23.221383 7.6153456 22.932872 6.094925 21.884766 5.765625 C 20.939431 5.4011559 20.144698 6.222347 19.368199 6.6130675 C 17.795597 7.53892 16.222994 8.4647725 14.650391 9.390625 C 13.656821 9.1736556 13.777315 8.316281 13.823554 7.5015908 C 13.809315 5.5688079 13.879118 3.6311941 13.816406 1.7011719 C 13.678716 0.97776663 12.95875 0.4503377 12.226562 0.54296875 z "
       id="path895"
       style="fill:#ffffff;fill-opacity:1;stroke:none;stroke-width:0.1;stroke-miterlimit:4;stroke-dasharray:none;stroke-opacity:1" /></g></svg>