<?xml version="1.0" encoding="UTF-8" standalone="no"?>
<svg
   xmlns:dc="http://purl.org/dc/elements/1.1/"
   xmlns:cc="http://creativecommons.org/ns#"
   xmlns:rdf="http://www.w3.org/1999/02/22-rdf-syntax-ns#"
   xmlns:svg="http://www.w3.org/2000/svg"
   xmlns="http://www.w3.org/2000/svg"
   xmlns:sodipodi="http://sodipodi.sourceforge.net/DTD/sodipodi-0.dtd"
   xmlns:inkscape="http://www.inkscape.org/namespaces/inkscape"
   version="1.1"
   x="0px"
   y="0px"
   viewBox="0 0 100 100"
   xml:space="preserve"
   id="svg4667"
   sodipodi:docname="fallback.svg"
   width="100"
   height="100"
   inkscape:version="0.92.3 (2405546, 2018-03-11)"><metadata
     id="metadata4673"><rdf:RDF><cc:Work
         rdf:about=""><dc:format>image/svg+xml</dc:format><dc:type
           rdf:resource="http://purl.org/dc/dcmitype/StillImage" /><dc:title /></cc:Work></rdf:RDF></metadata><defs
     id="defs4671" /><sodipodi:namedview
     pagecolor="#ffffff"
     bordercolor="#666666"
     borderopacity="1"
     objecttolerance="10"
     gridtolerance="10"
     guidetolerance="10"
     inkscape:pageopacity="0"
     inkscape:pageshadow="2"
     inkscape:window-width="1853"
     inkscape:window-height="1025"
     id="namedview4669"
     showgrid="false"
     inkscape:zoom="5.3400704"
     inkscape:cx="26.185551"
     inkscape:cy="39.239407"
     inkscape:window-x="67"
     inkscape:window-y="27"
     inkscape:window-maximized="1"
     inkscape:current-layer="svg4667" /><path
     style="fill:#ffffff;fill-opacity:1;stroke:none;stroke-width:0.11125069;stroke-miterlimit:4;stroke-dasharray:none;stroke-opacity:1"
     d="M 46.894531 6.7558594 C 45.291624 6.7969255 43.65929 6.894224 42.13253 7.2525104 C 39.871019 7.7554041 37.622497 8.5189332 35.525391 9.5488281 C 34.598415 10.008585 33.606308 10.56395 32.699219 11.140625 C 27.919587 14.224663 24.101843 18.854692 22.229541 24.246573 C 21.584613 26.057115 21.170846 27.947334 20.980469 29.859375 C 20.923205 30.67016 20.853073 31.677318 20.912109 32.568359 C 20.966204 33.639031 21.219917 34.745815 21.95742 35.56162 C 22.884422 36.662041 24.208592 37.511946 25.664062 37.636719 C 26.796581 37.611375 28.017133 37.713336 29.019251 37.080987 C 30.361002 36.426104 31.436582 35.206117 31.76811 33.733461 C 32.21875 31.978397 32.168878 30.125667 32.744186 28.39589 C 33.40226 26.066462 34.838691 24.022471 36.607655 22.395893 C 38.513788 20.55865 40.818749 19.063625 43.416016 18.441406 C 46.001907 17.766413 48.734638 17.600397 51.363501 18.126617 C 54.707627 18.727452 57.881361 20.360225 60.198353 22.862148 C 63.425039 26.266424 65.032962 31.222333 64.137627 35.857746 C 63.54606 39.1006 61.792779 42.136894 59.192125 44.179774 C 57.219649 45.779966 54.933944 46.927653 52.889504 48.42816 C 49.959017 50.528459 47.558487 53.334076 45.828125 56.490234 C 45.421519 57.225594 44.979592 58.163744 44.623047 59.007812 C 43.481776 61.78181 42.872291 64.771741 42.867849 67.772622 C 42.803068 68.663308 42.943616 69.592873 43.484098 70.326539 C 44.62943 72.114227 46.809324 73.211866 48.933594 72.917969 C 50.97427 72.706999 52.999127 71.320904 53.509766 69.263672 C 53.934476 67.505871 53.811118 65.659895 54.326899 63.917869 C 55.050271 61.060681 56.7266 58.441943 59.075468 56.649529 C 60.929978 55.200344 63.139042 54.296001 65.013669 52.873608 C 68.261079 50.583233 71.0711 47.614212 72.950507 44.09703 C 75.02282 40.272727 76.01361 35.880774 75.845703 31.537109 C 75.810703 30.731837 75.732493 29.798382 75.600395 28.950289 C 75.303434 26.959127 74.726491 24.936992 73.962891 23.125 C 73.344185 21.654712 72.550611 20.185824 71.689453 18.894531 C 69.372088 15.411225 66.201688 12.51868 62.576172 10.441406 C 61.667288 9.9371525 60.655845 9.4095871 59.657587 8.9958238 C 57.447456 8.0508038 55.124325 7.343962 52.744141 6.9921875 C 51.908449 6.8839215 50.954796 6.8059205 50.067233 6.7832751 C 49.009674 6.7515099 47.952473 6.7475078 46.894531 6.7558594 z "
     id="path822"
     inkscape:connector-curvature="0" /><path
     style="fill:#ffffff;fill-opacity:1;stroke:none;stroke-width:0.11125069;stroke-miterlimit:4;stroke-dasharray:none;stroke-opacity:1"
     d="M 49.003906 79.910156 C 46.387044 80.08189 43.756579 81.382433 42.367029 83.663561 C 41.85623 84.464663 41.344843 85.32943 41.334489 86.308478 C 41.274499 87.305377 41.222009 88.313974 41.324219 89.308594 C 41.492145 90.155018 41.99084 90.969991 42.386258 91.65163 C 43.175951 92.958236 44.476367 94.007547 45.798828 94.617188 C 47.229303 95.273962 48.834453 95.528401 50.398438 95.357422 C 51.114303 95.274908 51.981684 95.073811 52.728516 94.763672 C 54.616055 94.008443 56.156944 92.499813 57.066406 90.693359 C 57.523909 89.762047 57.673785 88.718169 57.669922 87.689453 C 57.664719 87.00977 57.560846 86.160582 57.34476 85.441291 C 56.465108 82.51878 53.705637 80.391722 50.721255 79.986715 C 50.153455 79.902472 49.57703 79.876475 49.003906 79.910156 z "
     id="path824"
     inkscape:connector-curvature="0" /></svg>