<?xml version="1.0" encoding="UTF-8" standalone="no"?>
<svg
   xmlns:dc="http://purl.org/dc/elements/1.1/"
   xmlns:cc="http://creativecommons.org/ns#"
   xmlns:rdf="http://www.w3.org/1999/02/22-rdf-syntax-ns#"
   xmlns:svg="http://www.w3.org/2000/svg"
   xmlns="http://www.w3.org/2000/svg"
   id="svg8"
   version="1.1"
   viewBox="0 0 10.318749 10.31875"
   height="39"
   width="39">
  <defs
     id="defs2" />
  <metadata
     id="metadata5">
    <rdf:RDF>
      <cc:Work
         rdf:about="">
        <dc:format>image/svg+xml</dc:format>
        <dc:type
           rdf:resource="http://purl.org/dc/dcmitype/StillImage" />
        <dc:title></dc:title>
      </cc:Work>
    </rdf:RDF>
  </metadata>
  <g
     transform="translate(-55.12635,-81.504585)"
     id="layer1">
    <g
       style="fill:#ffffff;fill-opacity:1;stroke:#000000"
       transform="matrix(0.01691565,0,0,0.01728295,55.365868,81.533367)"
       id="g5094">
      <g
         style="fill:#ffffff;fill-opacity:1;stroke:#000000"
         id="g5030">
	<g
   style="fill:#ffffff;fill-opacity:1;stroke:#000000"
   id="g5028">
		<g
   style="fill:#ffffff;fill-opacity:1;stroke:#000000"
   id="g5014">
			<path
   style="fill:#ffffff;fill-opacity:1;stroke:#000000"
   d="m 395.225,277.325 c -6.8,0 -13.5,-2.6 -18.7,-7.8 -71.4,-71.3 -187.4,-71.3 -258.8,0 -10.3,10.3 -27.1,10.3 -37.4,0 -10.3,-10.3 -10.3,-27.1 0,-37.4 92,-92 241.6,-92 333.6,0 10.3,10.3 10.3,27.1 0,37.4 -5.2,5.2 -12,7.8 -18.7,7.8 z"
   id="path5012" />

		</g>

		<g
   style="fill:#ffffff;fill-opacity:1;stroke:#000000"
   id="g5018">
			<path
   style="fill:#ffffff;fill-opacity:1;stroke:#000000"
   d="m 323.625,348.825 c -6.8,0 -13.5,-2.6 -18.7,-7.8 -15.4,-15.4 -36,-23.9 -57.8,-23.9 -21.8,0 -42.4,8.5 -57.8,23.9 -10.3,10.3 -27.1,10.3 -37.4,0 -10.3,-10.3 -10.3,-27.1 0,-37.4 25.4,-25.4 59.2,-39.4 95.2,-39.4 36,0 69.8,14 95.2,39.5 10.3,10.3 10.3,27.1 0,37.4 -5.1,5.1 -11.9,7.7 -18.7,7.7 z"
   id="path5016" />

		</g>

		<g
   style="fill:#ffffff;fill-opacity:1;stroke:#000000"
   id="g5022">
			<circle
   style="fill:#ffffff;fill-opacity:1;stroke:#000000"
   cx="247.125"
   cy="398.92499"
   r="35.299999"
   id="circle5020" />

		</g>

		<g
   style="fill:#ffffff;fill-opacity:1;stroke:#000000"
   id="g5026">
			<path
   style="fill:#ffffff;fill-opacity:1;stroke:#000000"
   d="m 467.925,204.625 c -6.8,0 -13.5,-2.6 -18.7,-7.8 -111.5,-111.4 -292.7,-111.4 -404.1,0 -10.3,10.3 -27.1,10.3 -37.4,0 -10.3,-10.3 -10.3,-27.1 0,-37.4 64,-64 149,-99.2 239.5,-99.2 90.5,0 175.5,35.2 239.5,99.2 10.3,10.3 10.3,27.1 0,37.4 -5.3,5.2 -12.1,7.8 -18.8,7.8 z"
   id="path5024" />

		</g>

	</g>

</g>
      <g
         style="fill:#ffffff;fill-opacity:1;stroke:#000000"
         id="g5032">
</g>
      <g
         style="fill:#ffffff;fill-opacity:1;stroke:#000000"
         id="g5034">
</g>
      <g
         style="fill:#ffffff;fill-opacity:1;stroke:#000000"
         id="g5036">
</g>
      <g
         style="fill:#ffffff;fill-opacity:1;stroke:#000000"
         id="g5038">
</g>
      <g
         style="fill:#ffffff;fill-opacity:1;stroke:#000000"
         id="g5040">
</g>
      <g
         style="fill:#ffffff;fill-opacity:1;stroke:#000000"
         id="g5042">
</g>
      <g
         style="fill:#ffffff;fill-opacity:1;stroke:#000000"
         id="g5044">
</g>
      <g
         style="fill:#ffffff;fill-opacity:1;stroke:#000000"
         id="g5046">
</g>
      <g
         style="fill:#ffffff;fill-opacity:1;stroke:#000000"
         id="g5048">
</g>
      <g
         style="fill:#ffffff;fill-opacity:1;stroke:#000000"
         id="g5050">
</g>
      <g
         style="fill:#ffffff;fill-opacity:1;stroke:#000000"
         id="g5052">
</g>
      <g
         style="fill:#ffffff;fill-opacity:1;stroke:#000000"
         id="g5054">
</g>
      <g
         style="fill:#ffffff;fill-opacity:1;stroke:#000000"
         id="g5056">
</g>
      <g
         style="fill:#ffffff;fill-opacity:1;stroke:#000000"
         id="g5058">
</g>
      <g
         style="fill:#ffffff;fill-opacity:1;stroke:#000000"
         id="g5060">
</g>
    </g>
    <text
       id="text3801"
       y="91.041885"
       x="61.239338"
       style="font-style:normal;font-weight:normal;font-size:5.85219669px;line-height:1.25;font-family:sans-serif;letter-spacing:0px;word-spacing:0px;fill:#ffffff;fill-opacity:1;stroke:#000000;stroke-width:0.02764817;stroke-miterlimit:4;stroke-dasharray:none"
       xml:space="preserve"><tspan
         style="stroke-width:0.02764817;stroke-miterlimit:4;stroke-dasharray:none"
         id="tspan3799"
         y="91.041885"
         x="61.239338"><tspan
           style="stroke-width:0.02764817;stroke-miterlimit:4;stroke-dasharray:none"
           id="tspan3797"
           y="91.041885"
           x="61.239338">C</tspan></tspan></text>
  </g>
</svg>
