<?xml version="1.0" encoding="UTF-8" standalone="no"?>
<!-- Generator: Adobe Illustrator 19.0.0, SVG Export Plug-In . SVG Version: 6.00 Build 0)  -->

<svg
   xmlns:dc="http://purl.org/dc/elements/1.1/"
   xmlns:cc="http://creativecommons.org/ns#"
   xmlns:rdf="http://www.w3.org/1999/02/22-rdf-syntax-ns#"
   xmlns:svg="http://www.w3.org/2000/svg"
   xmlns="http://www.w3.org/2000/svg"
   xmlns:xlink="http://www.w3.org/1999/xlink"
   xmlns:sodipodi="http://sodipodi.sourceforge.net/DTD/sodipodi-0.dtd"
   xmlns:inkscape="http://www.inkscape.org/namespaces/inkscape"
   version="1.1"
   id="Layer_1"
   x="0px"
   y="0px"
   viewBox="0 0 70 70"
   xml:space="preserve"
   sodipodi:docname="sequence_star.svg"
   inkscape:version="0.92.3 (2405546, 2018-03-11)"
   width="70"
   height="70"><metadata
   id="metadata2932"><rdf:RDF><cc:Work
       rdf:about=""><dc:format>image/svg+xml</dc:format><dc:type
         rdf:resource="http://purl.org/dc/dcmitype/StillImage" /><dc:title /></cc:Work></rdf:RDF></metadata><defs
   id="defs2930"><linearGradient
     inkscape:collect="always"
     id="linearGradient3484"><stop
       style="stop-color:#000000;stop-opacity:1;"
       offset="0"
       id="stop3480" /><stop
       style="stop-color:#000000;stop-opacity:0;"
       offset="1"
       id="stop3482" /></linearGradient><linearGradient
     inkscape:collect="always"
     xlink:href="#linearGradient3484"
     id="linearGradient3486"
     x1="-0.050000001"
     y1="246.002"
     x2="492.05411"
     y2="246.002"
     gradientUnits="userSpaceOnUse" /></defs><sodipodi:namedview
   pagecolor="#ffffff"
   bordercolor="#666666"
   borderopacity="1"
   objecttolerance="10"
   gridtolerance="10"
   guidetolerance="10"
   inkscape:pageopacity="0"
   inkscape:pageshadow="2"
   inkscape:window-width="1853"
   inkscape:window-height="1025"
   id="namedview2928"
   showgrid="false"
   inkscape:pagecheckerboard="true"
   inkscape:zoom="2.8284271"
   inkscape:cx="31.531357"
   inkscape:cy="20.855892"
   inkscape:window-x="67"
   inkscape:window-y="27"
   inkscape:window-maximized="1"
   inkscape:current-layer="Layer_1" />
<g
   id="g2895"
   style="fill:#ffffff;fill-opacity:1;stroke:none;stroke-width:0.81949896;stroke-miterlimit:4;stroke-dasharray:none;stroke-opacity:1"
   transform="matrix(0.12192725,0,0,0.10971877,8.6237724,17.597952)">
	<g
   id="g2893"
   style="fill:#ffffff;fill-opacity:1;stroke:none;stroke-width:0.81949896;stroke-miterlimit:4;stroke-dasharray:none;stroke-opacity:1">
		<path
   d="M 285.79492 51.693359 C 277.37363 52.522059 272.63467 60.449846 266.99039 65.763164 C 261.8135 71.095411 254.7842 76.696454 255.62515 84.991751 C 255.84485 93.218572 263.15199 98.118314 268.21253 103.5688 C 299.98869 135.68454 331.76485 167.80028 363.54102 199.91602 C 365.5447 206.34499 362.86741 214.79937 356.66797 218.11914 C 348.52581 219.18094 339.98898 217.86768 331.67247 218.31636 C 229.51342 217.94788 127.35436 217.57941 25.195312 217.21094 C 15.749552 217.17336 7.887758 226.50679 8.9972459 235.7856 C 9.2369505 244.58023 8.2172639 253.48039 9.6542969 262.19531 C 11.929477 270.00909 19.950021 276.09211 28.21875 275.05273 C 137.83464 274.68099 247.45052 274.30924 357.06641 273.9375 C 362.96379 276.94789 366.87702 284.79624 364.76758 291.35547 C 359.16775 297.94986 352.1613 303.65365 346.19057 310.10561 C 316.93725 339.36184 287.59182 368.45645 258.20898 397.59375 C 252.33785 404.25236 253.46615 415.57858 260.19922 421.23828 C 266.93233 427.42433 272.15811 435.46982 280.13637 440.14206 C 288.53041 444.48082 298.37969 439.97776 303.68674 433.14408 C 351.98148 385.00044 400.24119 336.82143 448.97006 289.11623 C 459.61328 278.4768 470.59722 268.15471 481.0332 257.32227 C 486.93266 249.48986 485.31697 237.17796 477.5918 231.13281 C 427.9633 182.84774 378.28402 134.61451 329.09506 85.880662 C 318.38774 75.491508 307.98526 64.761054 297.09375 54.578125 C 293.85638 52.257835 289.74124 51.263061 285.79492 51.693359 z "
   id="path2891"
   style="fill:#ffffff;fill-opacity:1;stroke:none;stroke-width:0.81949896;stroke-miterlimit:4;stroke-dasharray:none;stroke-opacity:1"
   inkscape:connector-curvature="0" />
	</g>
</g>
<g
   id="g2897"
   transform="translate(0,-422.004)">
</g>
<g
   id="g2899"
   transform="translate(0,-422.004)">
</g>
<g
   id="g2901"
   transform="translate(0,-422.004)">
</g>
<g
   id="g2903"
   transform="translate(0,-422.004)">
</g>
<g
   id="g2905"
   transform="translate(0,-422.004)">
</g>
<g
   id="g2907"
   transform="translate(0,-422.004)">
</g>
<g
   id="g2909"
   transform="translate(0,-422.004)">
</g>
<g
   id="g2911"
   transform="translate(0,-422.004)">
</g>
<g
   id="g2913"
   transform="translate(0,-422.004)">
</g>
<g
   id="g2915"
   transform="translate(0,-422.004)">
</g>
<g
   id="g2917"
   transform="translate(0,-422.004)">
</g>
<g
   id="g2919"
   transform="translate(0,-422.004)">
</g>
<g
   id="g2921"
   transform="translate(0,-422.004)">
</g>
<g
   id="g2923"
   transform="translate(0,-422.004)">
</g>
<g
   id="g2925"
   transform="translate(0,-422.004)">
</g>
<g
   transform="matrix(1.3593248,0,0,1.2078566,1.7711482,4.7753883)"
   id="g897"
   style="fill:#ffffff;fill-opacity:1;stroke:none;stroke-width:0.1;stroke-miterlimit:4;stroke-dasharray:none;stroke-opacity:1"><path
     inkscape:connector-curvature="0"
     d="M 12.21875 0.515625 C 11.471465 0.5811426 10.860499 1.2801571 10.892578 2.0292969 C 10.902344 4.3229167 10.912109 6.6165365 10.921875 8.9101562 C 10.524384 9.0742425 10.125981 9.6140101 9.7299685 9.1690101 C 7.8154912 8.0601267 5.9151059 6.9254855 3.9921875 5.8320312 C 3.22653 5.453733 2.2070898 5.8991859 1.9667969 6.71875 C 1.7093188 7.433323 2.112904 8.2585931 2.7938289 8.5609516 C 4.7453651 9.674749 6.6969013 10.788546 8.6484375 11.902344 C 8.5923816 12.327555 8.8595436 12.940505 8.2766643 13.059716 C 6.3576711 14.159903 4.4288076 15.243659 2.515625 16.353516 C 1.7883595 16.838288 1.671234 17.981505 2.3009771 18.593909 C 2.7998473 19.150672 3.6978575 19.192846 4.2911544 18.763971 C 6.2292592 17.63171 8.167364 16.499449 10.105469 15.367188 C 10.445359 15.62742 11.108229 15.702151 10.91969 16.265886 C 10.91477 18.479265 10.884686 20.693193 10.894531 22.90625 C 10.952865 23.813111 11.959964 24.486733 12.819201 24.184827 C 13.489743 23.99385 13.936255 23.291795 13.868415 22.605382 C 13.856938 20.349551 13.845461 18.093721 13.833984 15.837891 C 14.228879 15.674409 14.625166 15.140088 15.017774 15.585417 C 16.946672 16.70331 18.85663 17.856229 20.796875 18.953125 C 21.570173 19.296447 22.56083 18.844902 22.800781 18.03125 C 23.055355 17.309051 22.647649 16.480638 21.961941 16.175534 C 20.009133 15.064288 18.056324 13.953042 16.103516 12.841797 C 16.158537 12.418598 15.893663 11.809537 16.475341 11.692328 C 18.394074 10.59171 20.324882 9.5111803 22.236328 8.3984375 C 22.954676 7.921044 23.080157 6.8022702 22.480469 6.1796875 C 21.98661 5.6005471 21.066592 5.5391459 20.462794 5.9802424 C 18.524024 7.1144324 16.585254 8.2486225 14.646484 9.3828125 C 14.306259 9.1216701 13.642453 9.0464572 13.829825 8.4821586 C 13.83383 6.2720051 13.856666 4.0615231 13.849609 1.8515625 C 13.790471 1.0502419 13.017367 0.41610206 12.21875 0.515625 z "
     id="path895"
     style="fill:#ffffff;fill-opacity:1;stroke:none;stroke-width:0.1;stroke-miterlimit:4;stroke-dasharray:none;stroke-opacity:1" /></g></svg>