<?xml version="1.0" encoding="UTF-8" standalone="no"?>
<!-- Generator: Adobe Illustrator 19.0.0, SVG Export Plug-In . SVG Version: 6.00 Build 0)  -->

<svg
   xmlns:dc="http://purl.org/dc/elements/1.1/"
   xmlns:cc="http://creativecommons.org/ns#"
   xmlns:rdf="http://www.w3.org/1999/02/22-rdf-syntax-ns#"
   xmlns:svg="http://www.w3.org/2000/svg"
   xmlns="http://www.w3.org/2000/svg"
   xmlns:xlink="http://www.w3.org/1999/xlink"
   xmlns:sodipodi="http://sodipodi.sourceforge.net/DTD/sodipodi-0.dtd"
   xmlns:inkscape="http://www.inkscape.org/namespaces/inkscape"
   version="1.1"
   id="Layer_1"
   x="0px"
   y="0px"
   viewBox="0 0 70 70"
   xml:space="preserve"
   sodipodi:docname="sequence.svg"
   inkscape:version="0.92.3 (2405546, 2018-03-11)"
   width="70"
   height="70"><metadata
   id="metadata2932"><rdf:RDF><cc:Work
       rdf:about=""><dc:format>image/svg+xml</dc:format><dc:type
         rdf:resource="http://purl.org/dc/dcmitype/StillImage" /><dc:title /></cc:Work></rdf:RDF></metadata><defs
   id="defs2930"><linearGradient
     inkscape:collect="always"
     id="linearGradient3484"><stop
       style="stop-color:#000000;stop-opacity:1;"
       offset="0"
       id="stop3480" /><stop
       style="stop-color:#000000;stop-opacity:0;"
       offset="1"
       id="stop3482" /></linearGradient><linearGradient
     inkscape:collect="always"
     xlink:href="#linearGradient3484"
     id="linearGradient3486"
     x1="-0.050000001"
     y1="246.002"
     x2="492.05411"
     y2="246.002"
     gradientUnits="userSpaceOnUse" /></defs><sodipodi:namedview
   pagecolor="#ffffff"
   bordercolor="#666666"
   borderopacity="1"
   objecttolerance="10"
   gridtolerance="10"
   guidetolerance="10"
   inkscape:pageopacity="0"
   inkscape:pageshadow="2"
   inkscape:window-width="1853"
   inkscape:window-height="1025"
   id="namedview2928"
   showgrid="false"
   inkscape:pagecheckerboard="true"
   inkscape:zoom="5.4268568"
   inkscape:cx="-0.60343378"
   inkscape:cy="18.905666"
   inkscape:window-x="67"
   inkscape:window-y="27"
   inkscape:window-maximized="1"
   inkscape:current-layer="Layer_1" />
<g
   id="g2895"
   style="fill:#ffffff;fill-opacity:1;stroke:none;stroke-width:0.81949896;stroke-miterlimit:4;stroke-dasharray:none;stroke-opacity:1"
   transform="matrix(0.12193588,0,0,0.10970882,5.4740955,7.5065132)">
	<g
   id="g2893"
   style="fill:#ffffff;fill-opacity:1;stroke:none;stroke-width:0.81949896;stroke-miterlimit:4;stroke-dasharray:none;stroke-opacity:1">
		<path
   d="M 285.70703 50.597656 C 276.27141 51.599758 271.20717 60.72782 264.82031 66.597656 C 258.83699 71.917755 252.71354 79.418085 255.22461 87.986328 C 257.44155 96.472091 265.644 101.08457 270.99679 107.43769 C 301.75567 138.34973 332.51456 169.26178 363.27344 200.17383 C 365.24615 206.43512 362.60385 214.75782 356.48438 217.88281 C 347.33478 218.65244 337.81412 217.68197 328.50131 218.04685 C 227.41884 218.01105 126.33637 217.97525 25.253906 217.93945 C 16.262801 217.94084 8.8345763 226.91908 9.9726385 235.73476 C 10.249725 244.4313 9.3469029 253.22293 10.75 261.83984 C 13.209955 270.7507 22.736162 275.25746 31.426711 273.86848 C 139.97653 273.84592 248.52635 273.82335 357.07617 273.80078 C 363.01755 276.86222 366.97868 284.73124 364.92383 291.375 C 359.40913 298.06894 352.39024 303.80288 346.46119 310.31749 C 317.4353 339.73607 288.29739 369.04327 259.15625 398.34766 C 253.77375 404.56682 254.97792 415.02463 261.20703 420.23047 C 267.88249 426.3218 273.04917 434.27982 280.93402 438.89245 C 288.82051 442.81696 297.73921 438.52479 302.81956 432.12465 C 354.38707 381.30423 405.99038 330.55683 457.96908 280.16048 C 465.65089 272.51115 473.68545 265.19303 481.1543 257.34375 C 487.11462 249.47445 485.55332 237.07926 477.8125 230.94336 C 426.07535 180.27859 374.35407 129.59772 323.03755 78.506231 C 314.55471 70.276419 306.40628 61.67419 297.72266 53.667969 C 294.27557 51.202706 289.90651 50.145192 285.70703 50.597656 z "
   id="path2891"
   style="fill:#ffffff;fill-opacity:1;stroke:none;stroke-width:0.81949896;stroke-miterlimit:4;stroke-dasharray:none;stroke-opacity:1"
   inkscape:connector-curvature="0" />
	</g>
</g>
<g
   id="g2897"
   transform="translate(0,-422.004)">
</g>
<g
   id="g2899"
   transform="translate(0,-422.004)">
</g>
<g
   id="g2901"
   transform="translate(0,-422.004)">
</g>
<g
   id="g2903"
   transform="translate(0,-422.004)">
</g>
<g
   id="g2905"
   transform="translate(0,-422.004)">
</g>
<g
   id="g2907"
   transform="translate(0,-422.004)">
</g>
<g
   id="g2909"
   transform="translate(0,-422.004)">
</g>
<g
   id="g2911"
   transform="translate(0,-422.004)">
</g>
<g
   id="g2913"
   transform="translate(0,-422.004)">
</g>
<g
   id="g2915"
   transform="translate(0,-422.004)">
</g>
<g
   id="g2917"
   transform="translate(0,-422.004)">
</g>
<g
   id="g2919"
   transform="translate(0,-422.004)">
</g>
<g
   id="g2921"
   transform="translate(0,-422.004)">
</g>
<g
   id="g2923"
   transform="translate(0,-422.004)">
</g>
<g
   id="g2925"
   transform="translate(0,-422.004)">
</g>
</svg>