<?xml version="1.0" encoding="UTF-8" standalone="no"?>
<svg
   xmlns:ns="http://ns.adobe.com/SaveForWeb/1.0/"
   xmlns:dc="http://purl.org/dc/elements/1.1/"
   xmlns:cc="http://creativecommons.org/ns#"
   xmlns:rdf="http://www.w3.org/1999/02/22-rdf-syntax-ns#"
   xmlns:svg="http://www.w3.org/2000/svg"
   xmlns="http://www.w3.org/2000/svg"
   xmlns:sodipodi="http://sodipodi.sourceforge.net/DTD/sodipodi-0.dtd"
   xmlns:inkscape="http://www.inkscape.org/namespaces/inkscape"
   version="1.1"
   x="0px"
   y="0px"
   viewBox="0 0 100 100"
   enable-background="new 0 0 100 100"
   xml:space="preserve"
   id="svg2394"
   sodipodi:docname="subtree.svg"
   width="100"
   height="100"
   inkscape:version="0.92.3 (2405546, 2018-03-11)"><defs
     id="defs2398" /><sodipodi:namedview
     pagecolor="#ffffff"
     bordercolor="#666666"
     borderopacity="1"
     objecttolerance="10"
     gridtolerance="10"
     guidetolerance="10"
     inkscape:pageopacity="0"
     inkscape:pageshadow="2"
     inkscape:window-width="1853"
     inkscape:window-height="1025"
     id="namedview2396"
     showgrid="false"
     inkscape:zoom="2.6700352"
     inkscape:cx="24.199423"
     inkscape:cy="53.360558"
     inkscape:window-x="67"
     inkscape:window-y="27"
     inkscape:window-maximized="1"
     inkscape:current-layer="svg2394" /><metadata
     id="metadata2386"><ns:sfw><ns:slices /><ns:sliceSourceBounds
         width="1447.2"
         height="1444.2"
         x="1"
         y="-1446.1"
         bottomLeftOrigin="true" /></ns:sfw><rdf:RDF><cc:Work
         rdf:about=""><dc:format>image/svg+xml</dc:format><dc:type
           rdf:resource="http://purl.org/dc/dcmitype/StillImage" /><dc:title /></cc:Work></rdf:RDF></metadata><path
     style="fill:#ffffff;fill-opacity:1;stroke:none;stroke-width:0.13241525;stroke-opacity:1"
     d="M 49.802734 10.71875 C 45.997396 10.727214 42.192057 10.735677 38.386719 10.744141 C 37.533523 11.074073 37.481621 11.987762 37.519458 12.7667 C 37.460404 19.511311 37.459536 26.284313 37.537506 33.050258 C 37.543795 33.91338 37.396529 35.06015 38.404297 35.451172 C 39.910307 35.711874 41.468368 35.541059 42.994141 35.601562 C 44.482422 35.600911 45.970703 35.60026 47.458984 35.599609 C 48.649002 36.278168 48.548726 37.49163 48.483642 38.690503 C 48.484538 40.207731 48.485433 41.724959 48.486328 43.242188 C 47.807569 44.433515 46.594452 44.337372 45.393482 44.270497 C 35.023376 44.2832 24.653285 44.271624 14.283203 44.248047 C 13.303819 44.559078 13.42596 45.644091 13.379661 46.463716 C 13.316114 49.100128 13.310344 51.737901 13.283203 54.375 C 12.598531 55.594345 11.281426 55.265432 10.104003 55.278475 C 7.8300641 55.301942 5.5475618 55.171062 3.2792969 55.339844 C 2.2239462 55.682791 2.2194613 56.845802 2.2946562 57.769208 C 2.2833216 64.363994 2.1740679 70.959434 2.2279459 77.553829 C 2.2956961 78.268842 2.1651439 79.06495 2.4902344 79.724609 C 3.172103 80.619474 4.3745721 80.292691 5.3352558 80.385361 C 9.1753857 80.407224 13.179902 80.364021 17.084991 80.344088 C 20.13088 80.324444 23.176768 80.3048 26.222656 80.285156 C 27.107888 79.985353 27.409489 79.087066 27.294571 78.223521 C 27.332491 70.880353 27.225833 63.536719 27.207031 56.193359 C 26.777791 55.243853 25.682218 55.411096 24.826172 55.359375 C 22.306716 55.332668 19.787139 55.324854 17.267578 55.314453 C 16.081737 54.670229 16.294311 53.445733 16.317717 52.299733 C 16.315682 50.914667 16.31551 49.529599 16.314453 48.144531 C 16.961293 46.959535 18.184965 47.160284 19.335022 47.184184 C 28.709633 47.144567 38.084298 47.126608 47.458984 47.117188 C 48.649777 47.797524 48.553755 49.010404 48.48503 50.211987 C 48.484457 51.597055 48.482021 52.982121 48.480469 54.367188 C 47.802799 55.557868 46.589046 55.452765 45.391529 55.386906 C 43.096618 55.407281 40.836572 55.332265 38.591797 55.445312 C 37.452797 55.615489 37.450465 56.912911 37.530621 57.814128 C 37.523592 64.84089 37.37593 71.869104 37.497597 78.895042 C 37.496624 79.751846 38.406209 80.381616 39.222656 80.244141 C 46.153035 80.339094 53.085045 80.278199 60.015625 80.222656 C 60.66809 80.137321 61.751818 80.410451 62.171875 79.607422 C 62.583192 78.555945 62.239434 77.278237 62.350742 76.136873 C 62.327039 69.515835 62.379105 62.893753 62.279297 56.273438 C 61.862294 55.150589 60.563453 55.470747 59.632664 55.399168 C 57.207742 55.371864 54.782479 55.391621 52.357422 55.388672 C 51.167823 54.711002 51.270145 53.49725 51.333342 52.299733 C 51.331307 50.914667 51.331135 49.529599 51.330078 48.144531 C 52.010416 46.953267 53.223294 47.050499 54.424875 47.120397 C 63.799567 47.128514 73.174208 47.156934 82.548828 47.193359 C 83.735931 47.839325 83.526409 49.063278 83.498702 50.211987 C 83.498129 51.597055 83.495693 52.982121 83.494141 54.367188 C 82.850782 55.551285 81.626027 55.340139 80.481391 55.32126 C 78.19398 55.331606 75.906559 55.339363 73.619141 55.347656 C 72.73538 55.585177 72.648314 56.423539 72.682436 57.211466 C 72.506194 62.380857 72.574742 67.556487 72.519531 72.728516 C 72.536138 74.891487 72.475063 77.058723 72.591797 79.21875 C 72.854111 80.003357 73.679408 80.407031 74.473059 80.279611 C 81.021839 80.397025 87.573085 80.374817 94.122623 80.353859 C 95.118896 80.29083 96.177796 80.415906 97.125 80.076172 C 97.893157 79.281323 97.600398 78.182554 97.64259 77.178652 C 97.585602 70.190939 97.662119 63.200581 97.476562 56.214844 C 97.211383 55.208585 96.048556 55.285831 95.21956 55.269819 C 92.632244 55.248589 90.044481 55.28119 87.457031 55.289062 C 86.235612 54.615494 86.546023 53.295556 86.515011 52.119683 C 86.493273 49.768606 86.474526 47.417503 86.455078 45.066406 C 86.079556 44.365729 85.309179 44.175418 84.567946 44.248212 C 75.049681 44.179561 65.530534 44.279574 56.011896 44.265902 C 54.793738 44.267763 53.57558 44.269624 52.357422 44.271484 C 51.166648 43.591147 51.262622 42.378268 51.331301 41.176685 C 51.332196 39.663363 51.33309 38.150041 51.333984 36.636719 C 52.006215 35.445863 53.22063 35.54323 54.417007 35.597737 C 56.746756 35.580289 59.076503 35.562596 61.40625 35.544922 C 62.347676 35.181376 62.322715 34.146896 62.306641 33.306641 C 62.358403 26.058099 62.32785 18.80923 62.345703 11.560547 C 61.898506 10.659622 60.870731 10.708017 60.017578 10.714844 C 56.612617 10.687802 53.207723 10.710568 49.802734 10.71875 z M 58.449219 13.683594 C 59.634481 14.333052 59.44259 15.5559 59.415768 16.71002 C 59.436397 21.714866 59.449076 26.719737 59.460938 31.724609 C 58.787706 32.914216 57.572502 32.796234 56.381763 32.737274 C 51.376904 32.741417 46.372046 32.739199 41.367188 32.736328 C 40.176045 32.063095 40.297992 30.847896 40.360669 29.65716 C 40.370941 24.652282 40.389163 19.647429 40.408203 14.642578 C 41.057658 13.455718 42.280515 13.651829 43.434643 13.682175 C 48.439503 13.67596 53.444359 13.679287 58.449219 13.683594 z M 58.449219 58.259766 C 59.640318 58.931227 59.512206 60.147003 59.451357 61.335026 C 59.439939 66.339255 59.420571 71.343457 59.400391 76.347656 C 58.754425 77.534049 57.530472 77.326408 56.381763 77.300246 C 51.376905 77.306461 46.372046 77.303135 41.367188 77.298828 C 40.182526 76.652859 40.38558 75.428916 40.407978 74.280216 C 40.386209 69.276022 40.372382 64.271801 40.359375 59.267578 C 41.030834 58.078139 42.246616 58.201959 43.434643 58.25882 C 48.439502 58.254677 53.44436 58.256894 58.449219 58.259766 z M 24.322266 59.267578 C 24.309789 64.960953 24.292207 70.654313 24.269531 76.347656 C 23.593706 77.56915 22.274573 77.228478 21.103987 77.248529 C 16.161752 77.230059 11.219547 77.205049 6.2773438 77.179688 C 5.0797767 76.532492 5.507272 75.208906 5.4375762 74.092263 C 5.4187549 69.150715 5.4064661 64.209147 5.3945312 59.267578 C 6.060197 58.057782 7.3810501 58.418056 8.5327192 58.372903 C 13.474912 58.344569 18.417142 58.324408 23.359375 58.304688 C 23.680339 58.625651 24.001302 58.946615 24.322266 59.267578 z M 84.998047 58.341797 C 87.845052 58.356771 90.692057 58.371745 93.539062 58.386719 C 94.752504 59.051658 94.376963 60.372647 94.414763 61.522979 C 94.406269 66.464558 94.387966 71.406108 94.369141 76.347656 C 93.72264 77.543803 92.398976 77.116693 91.283684 77.189081 C 86.341487 77.215817 81.39926 77.236014 76.457031 77.255859 C 75.240222 76.580765 75.570566 75.261501 75.540576 74.092265 C 75.520625 69.150717 75.507206 64.209148 75.494141 59.267578 C 76.145349 58.077795 77.36764 58.275242 78.524468 58.31367 C 80.682328 58.323046 82.840187 58.332421 84.998047 58.341797 z "
     id="path2962"
     inkscape:connector-curvature="0" /></svg>